<?xml version="1.0" encoding="UTF-8" standalone="no"?>
<!-- Created with Inkscape (http://www.inkscape.org/) -->

<svg
   width="155mm"
   height="50mm"
   viewBox="0 0 585.82678 188.97639"
   version="1.1"
   id="svg1"
   inkscape:version="1.3.2 (091e20ef0f, 2023-11-25, custom)"
   sodipodi:docname="markville.svg"
   xmlns:inkscape="http://www.inkscape.org/namespaces/inkscape"
   xmlns:sodipodi="http://sodipodi.sourceforge.net/DTD/sodipodi-0.dtd"
   xmlns="http://www.w3.org/2000/svg"
   xmlns:svg="http://www.w3.org/2000/svg">
  <sodipodi:namedview
     id="namedview1"
     pagecolor="#232323"
     bordercolor="#000000"
     borderopacity="0.25"
     inkscape:showpageshadow="2"
     inkscape:pageopacity="0.0"
     inkscape:pagecheckerboard="0"
     inkscape:deskcolor="#d1d1d1"
     inkscape:document-units="mm"
     inkscape:zoom="4"
     inkscape:cx="79"
     inkscape:cy="93.5"
     inkscape:window-width="1920"
     inkscape:window-height="1008"
     inkscape:window-x="0"
     inkscape:window-y="0"
     inkscape:window-maximized="1"
     inkscape:current-layer="layer2" />
  <defs
     id="defs1">
    <marker
       style="overflow:visible"
       id="ArrowTriangleStylized"
       refX="0"
       refY="0"
       orient="auto-start-reverse"
       inkscape:stockid="Stylized triangle arrow"
       markerWidth="0.69999999"
       markerHeight="0.69999999"
       viewBox="0 0 1 1"
       inkscape:isstock="true"
       inkscape:collect="always"
       preserveAspectRatio="xMidYMid">
      <path
         transform="scale(0.5)"
         style="fill:context-stroke;fill-rule:evenodd;stroke:context-stroke;stroke-width:1pt"
         d="m 6,0 c -3,1 -7,3 -9,5 0,0 0,-4 2,-5 -2,-1 -2,-5 -2,-5 2,2 6,4 9,5 z"
         id="path4" />
    </marker>
    <inkscape:path-effect
       effect="bend_path"
       id="path-effect154"
       is_visible="true"
       lpeversion="1"
       bendpath="m 277.83325,481.15836 c -6.66401,8.13597 67.82208,15.53363 94.91615,9.49542 19.04054,-4.24339 11.02239,7.43298 34.71836,14.81369 23.81871,7.41894 73.18072,9.89721 101.46838,-13.11379"
       prop_scale="1"
       scale_y_rel="false"
       vertical="false"
       hide_knot="false"
       bendpath-nodetypes="cssc" />
    <inkscape:path-effect
       effect="attach_path"
       id="path-effect153"
       is_visible="true"
       lpeversion="1"
       startpath=""
       startposition="0"
       startcurvestart="0,0 , 20,0"
       startcurveend="0,0 , 20,0"
       endpath=""
       endposition="0"
       endcurvestart="0,0 , 20,0"
       endcurveend="0,0 , 20,0" />
    <inkscape:path-effect
       effect="skeletal"
       id="path-effect152"
       is_visible="true"
       lpeversion="1"
       pattern="M 0,0 H 1"
       copytype="single_stretched"
       prop_scale="1"
       scale_y_rel="false"
       spacing="0"
       normal_offset="0"
       tang_offset="0"
       prop_units="false"
       vertical_pattern="false"
       hide_knot="false"
       fuse_tolerance="0" />
    <inkscape:path-effect
       effect="powerstroke"
       id="path-effect150"
       is_visible="true"
       lpeversion="1.3"
       scale_width="1"
       interpolator_type="CentripetalCatmullRom"
       interpolator_beta="0.2"
       start_linecap_type="zerowidth"
       end_linecap_type="zerowidth"
       offset_points="18,2.834645 | 46,2.834645 | 60.5,2.834645 | 71,2.834645 | 93,2.834645 | 115.5,2.834645 | 128,2.834645 | 140.5,2.834645 | 152,2.834645 | 161,2.834645 | 167,2.834645 | 177.5,2.834645 | 191.5,2.834645 | 206.5,2.834645 | 220,2.834645 | 231,2.834645 | 243,2.834645"
       linejoin_type="round"
       miter_limit="4"
       not_jump="false"
       sort_points="true"
       message="&lt;b&gt;Ctrl + click&lt;/b&gt; on existing node and move it" />
    <inkscape:path-effect
       effect="attach_path"
       id="path-effect149"
       is_visible="true"
       lpeversion="1"
       startpath=""
       startposition="0"
       startcurvestart="0,0 , 20,0"
       startcurveend="0,0 , 20,0"
       endpath=""
       endposition="0"
       endcurvestart="0,0 , 20,0"
       endcurveend="0,0 , 20,0" />
    <inkscape:path-effect
       effect="bend_path"
       id="path-effect148"
       is_visible="true"
       lpeversion="1"
       bendpath="m 277.36859,486.7396 c 206.92287,40.54041 134.92577,36.8043 230.45648,8.09685"
       prop_scale="1"
       scale_y_rel="false"
       vertical="false"
       hide_knot="false"
       bendpath-nodetypes="cc" />
    <inkscape:path-effect
       effect="fill_between_many"
       method="bsplinespiro"
       autoreverse="false"
       close="false"
       join="false"
       linkedpaths="#text148,0,1"
       id="path-effect151"
       is_visible="true"
       lpeversion="0" />
    <filter
       style="color-interpolation-filters:sRGB"
       inkscape:label="Drop Shadow"
       id="filter201"
       x="-0.038833388"
       y="-0.11119125"
       width="1.0614813"
       height="1.3041114">
      <feFlood
         result="flood"
         in="SourceGraphic"
         flood-opacity="1.000000"
         flood-color="rgb(39,181,116)"
         id="feFlood200" />
      <feGaussianBlur
         result="blur"
         in="SourceGraphic"
         stdDeviation="0.000000"
         id="feGaussianBlur200" />
      <feOffset
         result="offset"
         in="blur"
         dx="-8.165123"
         dy="8.348639"
         id="feOffset200" />
      <feComposite
         result="comp1"
         operator="in"
         in="flood"
         in2="offset"
         id="feComposite200" />
      <feComposite
         result="comp2"
         operator="over"
         in="SourceGraphic"
         in2="comp1"
         id="feComposite201" />
    </filter>
  </defs>
  <path
     d="m 133.49617,118.18106 c 1.44,0 2.496,-1.44 2.592,-2.784 l 3.264,-74.399987 v -0.192 c 0,-1.056 -0.576,-2.4 -2.4,-2.496 l -19.104,-0.96 h -0.192 c -1.344,0 -2.88,0.768 -3.264,1.248 -4.704,5.568 -13.728,19.68 -21.599999,33.216 -0.192,0.288 -0.288,0.48 -0.48,0.48 -0.192,0 -0.288,-0.096 -0.48,-0.384 -7.872,-13.536 -16.896004,-27.744 -21.600004,-33.312 -0.384,-0.48 -2.304,-1.248 -3.648,-1.248 h -0.192 l -18.912,1.056 c -1.824,0.192 -2.4,1.632 -2.4,2.688 l 3.744,74.303987 c 0,1.344 1.056,2.784 2.592,2.784 h 0.096 l 18.432,-1.536 c 2.112,-0.192 3.456,-2.208 3.456,-3.264 v -0.096 l -4.32,-40.799987 v -0.672 c 0,-0.576 0.096,-0.96 0.288,-0.96 0.288,0 0.576,0.288 0.96,0.768 1.824,2.496 8.832,16.896 13.632004,25.728001 0.576,1.152 1.536,2.592 3.264,2.592 l 9.888,-0.384 c 2.112001,-0.096 3.167999,-1.44 3.551999,-2.208 4.704,-8.832001 11.712,-23.808001 13.44,-26.208001 0.384,-0.48 0.672,-0.768 0.864,-0.768 0.288,0 0.384,0.384 0.384,1.056 v 0.48 l -4.512,41.471987 v 0.096 c 0,1.056 0.96,3.168 3.072,3.264 l 19.488,1.44 z m 76.248,-6.88993 c 0.27205,-0.33212 0.42928,-0.59181 0.47168,-0.77907 0.212,-0.9363 -0.69073,-1.73127 -1.52103,-2.41142 -2.63577,-2.27009 -2.75411,-6.52938 -1.48212,-12.147177 1.39918,-6.17957 4.55438,-14.02858 7.79437,-22.25212 l 0.106,-0.46814 c 0.2544,-1.12356 -0.12542,-2.48915 -2.51739,-3.22761 l -15.87999,-5.072 -0.46815,-0.106 c -1.12356,-0.25439 -2.02983,-0.1643 -2.74001,0.36391 -3.29117,-2.4185 -7.64584,-4.48722 -12.32734,-5.5472 -18.53874,-4.19755 -30.16484,10.19846 -32.70881,21.43405 -3.41315,15.07443 7.35599,30.111817 22.9922,33.652167 4.77513,1.08119 10.08554,1.10241 15.52669,-0.32321 3.68512,5.4606 9.90002,8.44266 10.83632,8.65465 1.21719,0.2756 2.34428,-0.35507 3.54735,-1.75598 z m -25.886,-13.046496 c -2.36549,0.44871 -4.51015,0.35684 -6.28912,-0.046 -6.08595,-1.37798 -8.71993,-6.699011 -7.53274,-11.942291 1.08118,-4.77513 5.65142,-9.74456 11.5501,-8.40898 2.71527,0.61479 4.94649,2.498 5.64605,4.625 -0.82325,2.7665 -1.48927,5.27331 -2.04047,7.70769 -0.65719,2.90253 -1.06352,5.56657 -1.33382,8.064541 z m 65.31649,15.023636 c 1.05183,-0.0938 1.83568,-1.0311 1.7419,-2.08292 l -0.0171,-0.19124 -4.83482,-33.687727 c 1.49583,-0.51889 2.81747,-0.82949 4.15616,-0.94885 1.62555,-0.14493 3.27667,-0.003 4.84923,0.33869 0.39101,0.0615 0.78202,0.12304 1.06888,0.0975 1.14745,-0.1023 2.04398,-0.8569 2.21148,-2.22117 l 1.57091,-13.72976 c 0.053,-0.48663 0.11451,-0.87763 0.0804,-1.26012 -0.10231,-1.14744 -0.74424,-1.86126 -2.21265,-2.11586 -3.02392,-0.40505 -6.2135,-0.50619 -9.46461,-0.21633 -4.78103,0.42628 -9.6851,1.63457 -14.70369,3.7205 l -11.04084,1.56268 c -1.05183,0.0938 -1.82716,1.12672 -1.72486,2.27417 l 7.11065,49.484027 c 0.1023,1.14745 1.12671,1.82716 2.27416,1.72485 z m 79.15217,14.57778 c 0.5996,-0.67875 0.82782,-1.25405 0.89667,-1.82592 0.42454,-3.52654 -12.26326,-15.40012 -18.68266,-18.30016 6.09736,-2.45684 11.88583,-4.75749 14.40632,-5.61438 1.21258,-0.43418 2.40214,-4.520226 2.40214,-5.480226 0,-0.576001 -0.192,-1.152001 -0.576,-1.728001 l -6.55089,-10.57193 c -0.77185,-1.24562 -1.42524,-1.81536 -2.18774,-1.90716 -4.19372,-0.50486 -22.05604,9.72151 -26.331,12.30105 l 2.77964,-40.75996 c 0.0721,-1.05789 -0.62833,-2.0095 -1.67676,-2.13571 l -0.19062,-0.023 -19.17711,-1.34171 c -0.96243,-0.0673 -1.92566,0.73512 -2.0404,1.68823 l -0.023,0.19063 -5.37125,78.351657 c -0.0424,1.15522 0.81895,2.03246 1.86738,2.15867 l 19.18858,1.24639 c 1.14374,0.13769 2.02098,-0.72363 2.15867,-1.86738 l 1.10426,-16.40159 0.6063,-0.21709 c 2.02097,-0.72363 6.69217,-2.57862 11.88582,-4.75748 l -8.07427,7.63367 c -0.54483,0.5151 -0.7934,0.96811 -0.85077,1.44467 -0.10326,0.8578 0.37682,1.68914 0.90279,2.13923 4.49373,3.63516 15.5242,12.40844 20.35329,16.47074 0.52597,0.45009 1.0749,0.70956 1.55145,0.76693 0.95312,0.11474 1.78446,-0.36534 2.67317,-1.32198 z m 30.73894,-31.099866 c 1.72424,-0.11387 3.30842,-0.891951 4.21572,-1.721541 11.1118,-10.93196 19.38421,-45.9211 19.28299,-47.45376 -0.0886,-1.34108 -1.01394,-2.24206 -3.26142,-2.76711 l -13.0954,-3.07979 c -0.79844,-0.18777 -1.46217,-0.28827 -2.13271,-0.24399 -1.24529,0.0822 -2.16525,0.72024 -2.65776,2.00348 -0.563,1.67274 -4.90163,16.10199 -7.74194,24.08249 -0.24942,0.59372 -0.42835,0.79796 -0.71572,0.81694 -0.19158,0.0127 -0.49161,-0.15996 -0.71482,-0.62626 L 339.9536,44.804663 c -0.5067,-0.94618 -1.54441,-1.53356 -2.98128,-1.43867 -2.01162,0.13284 -14.21869,6.13425 -16.4481,7.33978 -1.02208,0.54854 -1.55255,1.25703 -1.48296,2.31074 0.0443,0.67054 0.28647,1.42422 0.82868,2.3505 l 24.68163,40.12484 c 1.10426,1.795191 2.92344,2.019751 4.83927,1.893231 z m 43.62263,39.150986 c 0.96018,0.0941 1.9454,-0.68116 2.08666,-1.63071 l 0.0283,-0.18991 4.51955,-46.691187 c 0.0925,-0.95554 -0.5862,-1.93128 -1.53575,-2.07254 l -0.18991,-0.0283 -19.13227,-1.87563 c -1.15359,-0.0745 -2.04036,0.66704 -2.20987,1.8065 l -4.50542,46.596237 c -0.10205,1.05543 0.57208,2.02623 1.61658,2.18162 l 0.18991,0.0283 z m 10.73878,-65.662567 c 1.15832,-7.78632 -4.17641,-14.98566 -11.86777,-16.12985 -7.78631,-1.15832 -14.98565,4.1764 -16.14397,11.96272 -1.1442,7.69135 4.19053,14.89069 11.97684,16.04902 7.69136,1.14419 14.8907,-4.19053 16.0349,-11.88189 z m 32.94819,60.398127 c 1.05377,-0.0685 1.85987,-0.9868 1.79133,-2.04057 l -5.09061,-78.266617 c -0.0748,-1.14957 -0.99303,-1.95567 -2.0468,-1.88713 l -19.25531,1.25241 c -1.05378,0.0685 -1.85988,0.98679 -1.78511,2.13636 l 5.09061,78.266607 c 0.0685,1.05378 0.9868,1.85988 2.04057,1.79134 z m 34.78724,0.71304 c 1.056,0 1.92,-0.864 1.92,-1.92 V 50.993783 c 0,-1.152 -0.864,-2.016 -1.92,-2.016 h -19.296 c -1.056,0 -1.92,0.864 -1.92,2.016 v 78.431987 c 0,1.056 0.864,1.92 1.92,1.92 z m 41.01367,-3.21447 c 2.77551,0.21724 4.12458,-1.02528 5.0101,-2.49667 1.69031,-3.14168 4.68809,-9.455 4.763,-10.41208 0.12735,-1.62702 -1.43225,-2.61573 -2.77215,-2.72061 l -0.19142,-0.015 c -0.67675,-0.053 -1.4431,-0.0167 -2.11305,-0.0691 -11.96339,-0.93639 -16.34088,-8.9825 -15.80901,-15.777706 0.46445,-5.933851 4.60736,-9.653921 9.20129,-9.294341 4.01971,0.31462 5.59843,3.51959 5.53101,4.38095 -0.10487,1.3399 -0.78981,1.47888 -5.85648,2.23783 -1.26667,0.18974 -2.06976,0.60835 -2.15216,1.66113 -0.03,0.38283 1.30153,6.746127 2.20281,9.994357 0.29294,1.17845 0.71904,1.88586 2.25035,2.00572 4.99176,0.19811 12.1565,-0.30032 16.7746,-1.47955 5.79656,-1.47217 7.89966,-4.96672 8.24425,-9.369246 0.2472,-3.158341 0.84996,-24.392051 -22.88545,-26.249851 -21.82124,-1.70797 -32.61134,11.89152 -33.68257,25.57766 -1.13865,14.547497 8.61086,30.236107 30.3364,31.936587 z"
     id="path1-7"
     style="font-size:96px;line-height:1.25;font-family:'FOT-Yuruka Std';-inkscape-font-specification:'FOT-Yuruka Std';text-align:center;letter-spacing:0px;text-anchor:middle;fill:none;stroke:#ffffff;stroke-width:22.6772;stroke-linecap:round;stroke-linejoin:round;stroke-dasharray:none;stroke-opacity:1;paint-order:stroke fill markers;filter:url(#filter201)"
     aria-label="Markville"
     sodipodi:nodetypes="sccsccsccsccsccccsccsccssccccccssccsccscscscsccscssscscccssscscccccscsccscscccccccsccsccsccsccsccccccsccsccsccscsccsccsccscsccsscsccsccccsccsssssssssssssssssssssssscsscsssssscccsssssc" />
  <g
     inkscape:label="Layer 1"
     inkscape:groupmode="layer"
     id="layer1">
    <g
       inkscape:groupmode="layer"
       id="layer2"
       inkscape:label="Layer 2">
      <path
         d="m 286.71578,496.23872 c 0.73635,0.15029 0.9949,-0.10035 1.09733,-0.55829 l 0.0372,-0.16651 c 0.14399,-0.90764 0.28947,-1.81499 0.43645,-2.72204 0.0797,-0.46288 -0.21413,-0.68252 -0.5399,-0.75847 -0.0233,-0.005 -0.0466,-0.0109 -0.0699,-0.0163 -0.94887,-0.1742 -1.90007,-0.36374 -2.85318,-0.5713 -0.64981,-0.14073 -1.31007,-0.29454 -1.97936,-0.4663 -0.0401,-0.0123 -0.0803,-0.0246 -0.12044,-0.037 -0.31403,-0.097 -0.67593,-0.30316 -0.53442,-0.81897 0.40363,-1.40163 0.81204,-2.80173 1.2254,-4.20024 0.83286,0.297 1.67809,0.56573 2.52869,0.81889 0.0501,0.017 0.0943,0.0351 0.13304,0.0542 0,0 1e-5,0 1e-5,0 0.2112,0.10447 0.25887,0.24302 0.20802,0.43487 -0.005,0.0204 -0.33831,0.84115 -0.71976,1.46414 0,0 0,0 0,0 -0.004,0.006 -0.008,0.0125 -0.0115,0.0187 -0.0447,0.0763 -0.0897,0.15266 -0.10638,0.2144 -0.0204,0.0756 -0.0249,0.15187 -0.007,0.229 0,0 0,0 0,0 0.0264,0.11192 0.10061,0.22589 0.24302,0.34194 0.56341,0.41757 2.81041,1.72156 3.08884,1.78399 0.20787,0.0466 0.45215,0.035 0.59918,-0.0859 2.41039,-1.83507 3.41087,-4.5973 3.47883,-4.94552 0.24835,-1.27257 -0.9852,-2.13084 -1.88406,-2.36957 -1.28701,-0.34373 -2.55631,-0.7125 -3.80393,-1.11472 -0.88887,-0.28775 -1.74535,-0.58201 -2.55861,-0.89981 0.29491,-0.94578 0.5626,-1.80373 0.78249,-2.57219 0.10913,-0.32371 0.007,-0.53664 -0.22462,-0.61869 -0.0166,-0.006 -0.0332,-0.0118 -0.0498,-0.0177 -0.1993,-0.0569 -0.39439,-0.11543 -0.58517,-0.17587 0,0 0,0 0,0 -0.81597,-0.29557 -1.344,-0.42368 -1.51077,-0.51887 -0.006,-0.0486 -0.006,-0.0788 0.001,-0.091 0.0281,-0.0489 0.0234,0.27154 -0.20262,0.5326 -0.49661,0.5432 -0.9811,1.10023 -1.45421,1.66899 -5.2e-4,0.0226 0.16449,0.34148 0.59871,0.93739 0,0 0,0 0,0 0.2286,0.55305 0.28164,1.17349 0.16777,1.90223 0,0 0,0 0,0 -0.0574,0.19747 -0.11184,0.3736 -0.16446,0.52843 -0.0159,0.0437 -0.0317,0.0856 -0.0473,0.12569 -0.17926,0.46049 -0.40035,0.522 -0.58903,0.3766 -0.95503,-0.67374 -1.85418,-1.42407 -2.69334,-2.22097 l -0.0318,-0.0282 c -0.17066,-0.15126 -0.44429,-0.23562 -0.57169,-0.0811 -0.0874,0.12767 -0.15381,0.25798 -0.18214,0.38938 0,0 0,0 0,0 -0.0433,0.16441 -0.0301,0.35405 0.0282,0.52899 0,0 0,0 0,0 0.11493,0.38957 0.43647,0.71888 0.81684,1.02609 -1.17605,1.64591 -2.28478,3.34265 -3.3387,5.05394 -0.31507,0.52477 -0.50435,1.05503 -0.49247,1.56818 -0.007,1.25627 1.19748,3.03259 3.63315,3.96619 0.12752,0.0529 0.25909,0.10452 0.39468,0.15475 0.19374,0.0718 0.39379,0.12185 0.61257,0.19955 1.47071,0.46246 2.87373,0.82242 4.19837,1.11518 1.01139,0.22573 2.01693,0.43191 3.01616,0.62124 z m 22.95187,3.02023 c 0.72641,0.0343 1.06155,-0.25397 1.20227,-0.71095 0.58127,-2.01599 1.10038,-3.94525 1.61268,-5.82796 0.41629,-1.5301 0.8331,-3.04786 1.30647,-4.68593 0.0348,-0.12524 0.0697,-0.25041 0.0821,-0.37783 0.0643,-0.66137 -0.21497,-1.27787 -0.71142,-1.72687 -0.36392,-0.3295 -0.84497,-0.56951 -1.39554,-0.67238 -3.87085,-0.69743 -7.70473,-1.46518 -11.48394,-2.33871 -0.0145,-0.002 -0.0291,-0.004 -0.0436,-0.007 -0.21805,-0.0334 -0.41523,0.087 -0.46982,0.29442 -0.28382,1.10729 -0.56948,2.21421 -0.857,3.32074 l -0.007,0.0422 c -0.0331,0.21074 0.0961,0.40386 0.31531,0.45947 2.65979,0.62865 5.34006,1.20479 8.03483,1.74002 0.15216,0.0611 0.38477,0.21742 0.34251,0.57751 -0.0538,0.45821 -1.2304,4.03062 -1.48956,4.76409 -0.10457,0.28796 -0.20691,0.36213 -0.6512,0.37186 -2.42238,-0.21964 -4.84725,-0.47386 -7.27335,-0.77092 -0.25283,-0.0392 -0.34829,0.11834 -0.37803,0.30811 l -0.0132,0.0843 c -0.0928,1.19467 -0.18407,2.38952 -0.27376,3.58454 -0.0126,0.23551 0.17256,0.43699 0.43075,0.47646 3.92472,0.46341 7.83299,0.8173 11.72015,1.09456 z m 18.6863,-9.74002 c 0.18727,-0.11821 0.26157,-0.24257 0.27051,-0.41298 0.0572,-1.08954 -3.88301,-3.94665 -4.50388,-3.98837 -0.22259,-0.015 -0.45247,0.0763 -0.66328,0.21138 -1.03882,0.56258 -2.08327,1.12021 -3.13317,1.67287 -0.11699,0.055 -0.16852,0.13656 -0.1769,0.24292 -0.0285,0.36156 0.35138,0.85833 3.5387,4.34396 0.14892,0.15967 0.25556,0.27369 0.41463,0.28416 0.13628,0.009 0.29977,-0.0445 0.5605,-0.19872 1.23921,-0.71144 2.47027,-1.42985 3.69289,-2.15522 z m 7.73067,2.2594 c -0.0866,-0.15184 -0.24303,-0.24175 -0.40188,-0.24648 -0.0454,-0.001 -0.11413,0.0179 -0.18288,0.0372 -3.12651,1.70717 -9.65629,4.14321 -13.64921,5.26024 -0.16755,0.0735 -0.27063,0.21582 -0.2814,0.36477 -0.005,0.0638 0.0138,0.12934 0.0324,0.19485 0.67174,1.3105 1.3522,2.61904 2.0415,3.92551 0.0837,0.15514 0.24197,0.25093 0.40578,0.26143 0.0702,0.005 0.14173,-0.0123 0.21327,-0.0292 4.73733,-0.94013 9.3162,-2.88308 13.52853,-5.81949 0.14048,-0.10352 0.23568,-0.25078 0.23895,-0.40009 9.4e-4,-0.0427 0.002,-0.10663 -0.0422,-0.17163 -0.64144,-1.12376 -1.27568,-2.24949 -1.90284,-3.37713 z m 20.48633,5.28462 c 0.0878,-0.11136 0.12995,-0.19905 0.12435,-0.30555 -0.0193,-0.36704 -0.55813,-0.79646 -2.14245,-1.58638 2.19696,-2.71541 3.01239,-5.37145 2.94534,-6.49205 -0.0788,-1.31753 -1.31814,-2.03906 -2.24014,-2.0592 -2.26899,-0.0709 -4.54337,-0.18537 -6.82389,-0.33152 -1.24402,-1.68971 -1.28096,-1.71355 -1.52393,-1.7116 -0.15457,0.001 -0.30873,0.0877 -0.41879,0.17372 -0.28817,0.23466 -0.60977,0.48798 -0.95973,0.75093 0,0 0,0 0,0 -1.4217,1.06688 -3.27826,2.27001 -5.17179,2.99827 -0.18102,0.0826 -0.29512,0.18752 -0.29814,0.37949 -0.001,0.0853 0.0191,0.21371 0.12945,0.36472 0.64617,0.96285 1.29859,1.92362 1.95733,2.88224 0.13477,0.19318 0.31639,0.25866 0.52122,0.26008 0.53239,0.004 1.77554,-0.49271 2.87762,-0.99311 0.89805,-0.40789 1.66703,-0.80125 1.92826,-0.93276 1.06983,0.0677 2.13976,0.12882 3.20987,0.18216 0.29376,0.0145 0.45565,0.1596 0.46052,0.3516 0.007,0.29404 -0.31915,0.71788 -1.38792,1.95134 -1.30438,-0.52747 -2.93623,-1.19893 -3.4277,-1.19623 -0.22708,0.001 -0.38547,0.0872 -0.56668,0.27987 -0.0713,0.0718 -0.14267,0.1435 -0.21408,0.21521 -0.51089,0.51296 -1.02442,1.02459 -1.54057,1.53489 -0.0687,0.0638 -0.0918,0.12775 -0.092,0.19176 -5.3e-4,0.19205 0.20485,0.40589 0.45688,0.5556 0.39357,0.26079 0.78817,0.52082 1.18381,0.78007 0.37187,0.24366 0.74478,0.48661 1.11882,0.72879 -0.36404,0.32594 -0.73679,0.64496 -1.11434,0.95377 -1.21722,0.99625 -2.47705,1.87963 -3.64107,2.53773 -0.25763,0.14696 -0.37606,0.31631 -0.37739,0.4443 -0.001,0.10665 0.0445,0.21383 0.16014,0.32164 0.67104,0.63244 1.34627,1.26272 2.02574,1.89079 0.3047,0.27846 0.68103,0.38564 0.91649,0.38574 0.0804,3e-5 0.41306,-0.11902 0.92999,-0.36034 1.14856,-0.5352 3.21389,-1.67545 5.41532,-3.46426 0.99961,0.59614 1.81387,1.07963 2.1758,1.23918 0.14443,0.0804 0.24124,0.14116 0.35934,0.13696 0.16526,-0.006 0.32797,-0.0972 0.55421,-0.36205 0.84048,-0.89329 1.67108,-1.7918 2.49007,-2.6958 z m 2.8247,-12.31612 c 0.12038,-0.13727 0.19705,-0.27143 0.18746,-0.39907 -0.008,-0.1064 -0.0591,-0.20942 -0.1961,-0.3062 -0.0226,-0.0126 -0.0451,-0.0252 -0.0677,-0.0378 -0.44367,-0.34514 -0.88478,-0.69227 -1.32352,-1.04126 -0.15694,-0.0966 -0.31219,-0.1722 -0.48356,-0.16154 -0.10714,0.007 -0.21296,0.0345 -0.31512,0.12614 -0.34815,0.29874 -0.69872,0.59634 -1.05159,0.89282 -0.083,0.0684 -0.22909,0.18304 -0.22136,0.33204 0.004,0.0852 0.0533,0.18952 0.16747,0.29031 0.48902,0.46554 0.9814,0.92895 1.47745,1.39006 0.11574,0.0997 0.25225,0.17676 0.40527,0.16699 0.0874,-0.006 0.19395,-0.0553 0.29747,-0.14756 0.37773,-0.36692 0.7524,-0.73522 1.12383,-1.10493 z m -4.02458,1.0133 c 0.37043,-0.0606 0.51676,-0.19667 0.50475,-0.43085 -0.003,-0.0639 -0.007,-0.12781 -0.0316,-0.19062 -0.15083,-0.5263 -0.30054,-1.05279 -0.44917,-1.57948 -0.0774,-0.25251 -0.3053,-0.49765 -0.60758,-0.48394 -0.0216,9.8e-4 -0.0432,0.002 -0.0648,0.003 -0.52257,0.0876 -1.04672,0.17283 -1.57237,0.25591 -0.23713,0.0513 -0.40807,0.14242 -0.39928,0.39828 0.003,0.0853 0.0268,0.1485 0.0524,0.25436 0.17144,0.542 0.34411,1.08377 0.51805,1.62531 0.0737,0.21067 0.23173,0.31182 0.53946,0.29963 0.0513,-0.002 0.10255,-0.004 0.15381,-0.006 0.45286,-0.0468 0.90496,-0.0952 1.3563,-0.14537 z m 19.34856,13.94021 c 0.0145,0.002 0.0326,0.004 0.0471,0.006 0,0 0,0 0,0 0.3052,0.0803 0.54081,0.14563 0.73218,0.11674 0.15985,-0.0241 0.29765,-0.13253 0.40174,-0.30196 1.14252,-1.92326 1.9083,-4.67503 2.39373,-6.7822 0.53022,-2.30157 0.91796,-4.73321 0.89001,-7.09769 -0.014,-1.18821 -0.11204,-2.3804 -0.36839,-3.54911 -0.0694,-0.30324 -0.1584,-0.78793 -1.29887,-0.7411 -1.88715,0.0632 -3.59879,0.30573 -5.10917,0.64127 -0.48721,0.11299 -0.66949,0.45466 -0.59323,0.80896 l 0.0135,0.0629 c 0.23061,0.83083 0.46936,1.71148 0.668,2.6397 0.47318,2.21117 0.7817,4.69997 0.6763,7.04931 -0.11591,2.06585 -0.6393,4.07977 -1.82668,5.83574 -0.11956,0.19417 -0.23694,0.40969 -0.20802,0.57756 0.0217,0.12609 0.11859,0.23941 0.3311,0.26685 1.06158,0.18069 2.14413,0.33798 3.25064,0.46751 z m -5.90456,-7.72129 c 0.36368,-0.0569 0.67914,-0.26058 0.71719,-0.72132 0.0985,-1.10142 -0.0713,-3.42435 -0.4011,-5.29691 -0.40321,-2.289 -0.62577,-2.39924 -1.16641,-2.31148 -1.227,0.20634 -2.48371,0.3784 -3.76653,0.5281 -0.52358,0.0582 -0.63537,0.218 -0.60167,0.53721 0.008,0.0742 0.038,0.15705 0.0458,0.23128 0.32244,1.66307 0.85958,5.14435 1.02592,6.67344 0.0554,0.50911 0.30307,0.6759 0.67007,0.65531 1.13631,-0.0731 2.27279,-0.16588 3.4086,-0.28504 0.0227,-0.004 0.0454,-0.007 0.0681,-0.0106 z m 28.18308,12.12433 c 0.23674,0.12976 0.60429,0.10856 0.72399,-0.11793 l 1.80182,-3.4092 c 0.1292,-0.24447 -0.0206,-0.56511 -0.22705,-0.67773 -1.17368,-0.64247 -2.30302,-1.34692 -3.37526,-2.12454 0,0 0,0 0,0 -2.13456,-1.51983 -4.05529,-3.51012 -6.10401,-5.53878 0,0 0,0 0,0 -0.64468,-0.64837 -1.35005,-1.31354 -2.1532,-1.93893 -0.23198,-0.1802 -0.63318,-0.20875 -0.78217,0.001 l -2.24424,3.16647 c -0.15905,0.2244 -0.0807,0.54353 0.0726,0.66321 0.54874,0.42679 1.10398,0.95873 1.70141,1.54039 0,0 0,0 0,0 2.00521,1.99656 4.12694,4.14647 6.70341,6.01485 0,0 0,0 0,0 1.25454,0.891 2.55299,1.69414 3.8827,2.42071 z m 18.99421,3.86456 c 0.413,-1.9402 -0.87793,-3.84095 -2.86298,-4.34126 -1.98504,-0.50031 -4.0149,0.55801 -4.5785,2.4597 -0.56359,1.90169 0.69114,3.9483 2.82678,4.48711 2.13565,0.53882 4.2017,-0.66535 4.6147,-2.60555 z m 10.07464,10.88549 c 0.1874,0.25916 0.39367,0.36965 0.60978,0.39488 0.21602,0.0252 0.41569,-0.0163 0.63861,-0.0556 0.36267,-0.0673 0.72303,-0.14907 1.08025,-0.2445 0,0 0,0 0,0 6.34035,-1.66628 11.25551,-7.33043 11.93605,-12.35659 0.003,-0.0853 0.0279,-0.14836 0.0311,-0.23366 0.0545,-1.42416 -1.27402,-2.33707 -2.24137,-2.47421 -2.66531,-0.34835 -5.31648,-0.76915 -7.94955,-1.26006 -0.21872,-0.0412 -0.43721,-0.0828 -0.65545,-0.1248 -0.0145,-0.002 -0.0289,-0.003 -0.0434,-0.005 -0.23832,-0.0274 -0.45272,0.11921 -0.50152,0.34983 -0.24392,1.15308 -0.49024,2.30585 -0.73901,3.45829 l -0.005,0.0424 c -0.0276,0.23312 0.12776,0.44509 0.37014,0.49474 0.36367,0.0724 0.72779,0.1435 1.09232,0.21351 1.19538,0.2287 2.39463,0.44335 3.5974,0.64374 0.33335,0.0496 0.47976,0.18958 0.45896,0.44489 -0.0601,0.73758 -1.90171,3.35246 -4.7607,5.38452 -1.26099,0.89955 -2.71303,1.68359 -4.2768,2.14274 -0.3472,0.083 -0.50942,0.21139 -0.53254,0.3806 -0.0145,0.10578 0.0421,0.22119 0.12265,0.3398 0.58042,0.82523 1.17016,1.64679 1.76805,2.46445 z m 9.93805,-2.59179 c -0.10118,0.10049 -0.15537,0.20387 -0.16083,0.28905 -0.0109,0.17037 0.14798,0.2874 0.33124,0.40566 1.14662,0.71224 3.83079,2.35268 5.11575,3.13723 0.11918,0.0675 0.2868,0.13625 0.43224,0.1401 0.16955,0.005 0.3166,-0.0559 0.44163,-0.22363 0.79852,-1.1068 1.83346,-2.48654 2.54635,-3.56494 0.0958,-0.14857 0.16764,-0.27603 0.16856,-0.40405 0.001,-0.17072 -0.11566,-0.32072 -0.34974,-0.45093 -2.86546,-1.55554 -5.68113,-2.01447 -5.86234,-2.02304 -0.209,-0.01 -0.42099,0.0437 -0.59466,0.24844 -0.67929,0.81982 -1.36872,1.63525 -2.0682,2.44611 z m 15.21004,3.62403 c 0.1742,0.1437 0.32196,0.20272 0.49151,0.19668 0.49811,-0.0178 2.81465,-1.18796 5.28573,-3.14846 3.40162,-2.69395 6.79029,-6.65409 6.98747,-10.73584 0.006,-0.12992 0.0114,-0.25964 -0.005,-0.38673 -0.1631,-1.26692 -1.41562,-1.88691 -2.30396,-1.85098 -1.86104,0.0685 -3.72412,0.0975 -5.58693,0.0912 -0.41283,-0.002 -0.82554,-0.006 -1.23812,-0.0111 -0.9088,-1.269 -1.06514,-1.49753 -1.34525,-1.48273 -0.15079,0.008 -0.2768,0.0785 -0.38041,0.16909 -1.43557,1.13388 -3.67412,2.66175 -6.00155,3.43678 -0.19851,0.0655 -0.33066,0.19411 -0.32965,0.38611 4.5e-4,0.0853 0.0455,0.21313 0.13513,0.34057 0.64302,0.97029 1.29862,1.93635 1.96684,2.89791 0.16268,0.21024 0.34585,0.27054 0.57279,0.26532 0.47905,-0.011 2.28596,-0.56066 5.02964,-1.88879 0.62704,0.0113 1.25444,0.0186 1.88215,0.0217 0.22083,0.001 0.44171,0.002 0.66262,0.002 0.27034,9.5e-4 0.43564,0.0948 0.44894,0.26506 0.013,0.16646 -0.34487,0.77699 -0.97869,1.61774 -1.49725,1.98594 -4.37429,5.04368 -7.57411,6.92837 -0.25812,0.17552 -0.37486,0.32646 -0.37244,0.47588 0.002,0.10662 0.0508,0.19125 0.17189,0.29583 0.81604,0.71135 1.64316,1.41635 2.48135,2.11472 z m 35.47545,-12.5555 c 0.24541,-0.0826 0.47119,-0.36294 0.38767,-0.60541 l -1.25851,-3.6539 c -0.0903,-0.26227 -0.4348,-0.36956 -0.66653,-0.29106 -0.42683,0.14393 -0.85469,0.28476 -1.28348,0.42254 -4.3814,1.40458 -8.86549,2.49231 -13.40932,3.3117 -0.24186,0.044 -0.49189,0.30516 -0.44723,0.5571 l 0.6777,3.82346 c 0.0485,0.27331 0.40658,0.42603 0.65963,0.37986 4.72233,-0.86835 9.40009,-2.01872 13.99012,-3.49905 0.45079,-0.14495 0.90081,-0.29334 1.34995,-0.44524 z m 16.74193,-2.01973 c 0.23942,0.42638 0.58443,0.62751 1.13769,0.30771 1.52122,-0.87927 5.94807,-5.08196 7.27065,-8.92134 0.10024,-0.27082 0.0882,-0.48086 -0.0326,-0.62992 -0.14774,-0.18228 -0.27003,-0.16574 -3.37618,-1.30773 -0.2538,-0.10133 -0.41587,-0.0852 -0.56451,0.0265 -0.0742,0.0558 -0.14169,0.15958 -0.22226,0.24602 -1.81371,2.11912 -2.04402,2.2848 -2.21929,2.40243 -0.19494,0.13085 -0.3126,0.0805 -0.5129,-0.22091 l -4.1029,-6.17314 c -0.14138,-0.21271 -0.44758,-0.18853 -0.67143,-0.0428 -0.0115,0.007 -0.023,0.015 -0.0346,0.0225 -1.07098,0.77245 -2.17406,1.5125 -3.30536,2.22128 -0.23569,0.13238 -0.19303,0.42474 -0.0581,0.66717 2.21622,3.80933 4.44678,7.6101 6.69176,11.4022 z m -6.43776,2.09215 c 0.17473,-0.0336 0.29625,-0.0666 0.40813,-0.11885 0.53507,-0.25002 0.87767,-2.04554 0.9594,-3.91004 0.0821,-1.87302 -0.0972,-3.76698 -0.38713,-4.31293 -0.18001,-0.33898 -0.48933,-0.39205 -0.82698,-0.31234 -1.27026,0.30034 -2.54229,0.56439 -3.81439,0.79509 -0.0695,0.008 -0.15043,0.0454 -0.21108,0.0729 -0.24281,0.11046 -0.39282,0.31793 -0.35891,0.72371 0.14174,1.96892 0.20263,4.95147 -0.0343,6.98081 -0.0168,0.21447 -0.0281,0.38043 0.02,0.49923 0.0642,0.15842 0.22487,0.23258 0.64863,0.17336 1.19553,-0.16951 2.39473,-0.36586 3.5966,-0.59099 z"
         id="text148"
         style="font-size:21.3333px;line-height:1.25;font-family:'FOT-Yuruka Std';-inkscape-font-specification:'FOT-Yuruka Std';text-align:center;letter-spacing:0px;text-anchor:middle;fill:#27b574;fill-rule:nonzero;stroke:#ffffff;stroke-width:5.66929;stroke-linecap:round;stroke-linejoin:round;stroke-dasharray:none;paint-order:stroke fill markers"
         aria-label="セコンダリー・スクール"
         transform="translate(-134.10289,-365.43331)"
         inkscape:linked-fill="path151"
         inkscape:original-d="m 292.3821,510.63247 c 0.64,-0.0213 0.81066,-0.32 0.81066,-0.78934 v -0.17066 l -0.14933,-2.752 c -0.0213,-0.46934 -0.32,-0.61867 -0.61867,-0.61867 h -0.064 l -4.33066,0.23467 h -0.10667 c -0.27733,0 -0.61867,-0.0853 -0.64,-0.61867 l -0.128,-4.37333 2.496,0.064 c 0.32,0.0213 0.42667,0.14933 0.42667,0.384 0,0.0213 -0.10667,0.91733 -0.29867,1.62133 -0.0213,0.0853 -0.0427,0.17067 -0.0427,0.23467 0,0.192 0.0853,0.36266 0.34134,0.49066 0.53333,0.23467 2.90133,1.00267 3.09333,1.00267 0.192,0 0.40533,-0.064 0.512,-0.21333 1.792,-2.32534 2.24,-5.16267 2.24,-5.54667 0,-1.30133 -1.32267,-1.89867 -2.24,-1.94133 l -6.67733,-0.32 c -0.0213,-0.98134 -0.0427,-1.89867 -0.0853,-2.688 0,-0.34134 -0.192,-0.512 -0.49066,-0.512 h -0.064 l -4.032,0.21333 c -0.34134,0.0213 -0.49067,0.192 -0.49067,0.53333 l 0.0853,2.19734 -2.21866,-0.10667 h -0.064 c -0.23467,0 -0.448,0.10667 -0.448,0.34133 l -0.17067,3.47734 v 0.0427 c 0,0.23467 0.14933,0.49067 0.36267,0.512 l 2.70933,0.064 0.21333,5.97334 c 0.0853,2.048 0.74667,3.584 3.60534,3.584 0.14933,0 0.29866,-0.0213 0.46933,-0.0213 z m 20.672,-0.576 c 0.66133,-0.0427 0.93866,-0.36267 1.024,-0.832 0.61866,-3.75467 1.06666,-6.99734 1.728,-10.752 0.0213,-0.128 0.0427,-0.256 0.0427,-0.384 0,-1.152 -0.96,-2.06934 -2.21866,-2.176 L 302.4088,495.0378 h -0.0427 c -0.21334,0 -0.384,0.14933 -0.40534,0.36267 l -0.32,3.41333 v 0.0427 c 0,0.21333 0.14934,0.384 0.36267,0.40533 l 7.744,0.64 c 0.14933,0.0427 0.384,0.17067 0.384,0.53333 0,0.42667 -0.704,4.18134 -0.85333,4.90667 -0.064,0.29867 -0.14934,0.384 -0.55467,0.448 l -6.72,0.23467 c -0.23467,0 -0.29867,0.17066 -0.29867,0.36266 v 0.0853 l 0.256,3.584 c 0.0213,0.23466 0.21334,0.40533 0.448,0.40533 z m 16.576,-11.2 c 0.17066,-0.128 0.23466,-0.256 0.23466,-0.42667 0,-1.10933 -3.88266,-3.712 -4.50133,-3.712 -0.21333,0 -0.42667,0.10667 -0.61867,0.256 l -2.85866,1.89867 c -0.10667,0.064 -0.14934,0.14933 -0.14934,0.256 0,0.36266 0.42667,0.81066 3.62667,4.07466 0.14933,0.14934 0.256,0.256 0.40533,0.256 0.128,0 0.27734,-0.064 0.512,-0.23466 z m 7.36,1.94133 c -0.0853,-0.14933 -0.23467,-0.23467 -0.384,-0.23467 -0.0427,0 -0.10667,0.0213 -0.17067,0.0427 -2.66667,1.664 -9.088,4.65067 -12.43733,5.952 -0.14934,0.0853 -0.23467,0.23467 -0.23467,0.384 0,0.064 0.0213,0.128 0.0427,0.192 l 2.112,3.776 c 0.0853,0.14933 0.23466,0.23467 0.384,0.23467 0.064,0 0.128,-0.0213 0.192,-0.0427 4.24533,-1.23733 8.34133,-3.37067 12.18133,-6.4 0.128,-0.10667 0.21333,-0.256 0.21333,-0.40533 0,-0.0427 0,-0.10667 -0.0427,-0.17067 z m 18.98666,5.44 c 0.0853,-0.10667 0.128,-0.192 0.128,-0.29867 0,-0.36266 -0.46934,-0.832 -1.89867,-1.68533 2.13333,-2.624 3.072,-5.20533 3.072,-6.336 0,-1.32267 -1.152,-2.112 -2.048,-2.176 l -6.57067,-0.53333 c -1.17333,-1.70667 -1.216,-1.728 -1.45066,-1.728 -0.14934,0 -0.29867,0.0853 -0.40534,0.17066 -1.408,1.17334 -3.62666,2.83734 -5.84533,3.776 -0.17067,0.0853 -0.27733,0.192 -0.27733,0.384 0,0.0853 0.0213,0.21334 0.128,0.36267 l 1.87733,2.85867 c 0.128,0.192 0.29867,0.256 0.49067,0.256 0.896,0 3.98933,-1.64267 4.52266,-1.92 l 3.02934,0.23466 c 0.27733,0.0213 0.42666,0.17067 0.42666,0.36267 0,0.29867 -0.32,0.704 -1.344,1.92 -1.216,-0.55467 -2.73066,-1.23733 -3.2,-1.23733 -0.21333,0 -0.36266,0.0853 -0.53333,0.27733 l -1.64267,1.74933 c -0.064,0.064 -0.0853,0.128 -0.0853,0.192 0,0.192 0.192,0.40534 0.42667,0.55467 l 2.13333,1.51467 c -1.42933,1.36533 -2.98667,2.624 -4.37333,3.49866 -0.23467,0.14934 -0.34134,0.32 -0.34134,0.448 0,0.10667 0.0427,0.21334 0.14934,0.32 l 1.856,1.87734 c 0.27733,0.27733 0.61866,0.384 0.832,0.384 0.23466,0 2.83733,-1.23734 5.80266,-3.75467 0.896,0.61867 1.62134,1.13067 1.94134,1.30133 0.128,0.0853 0.21333,0.14934 0.32,0.14934 0.14933,0 0.29866,-0.0853 0.512,-0.34134 z m 3.392,-12.11733 c 0.128,-0.128 0.21333,-0.256 0.21333,-0.384 0,-0.10667 -0.0427,-0.21334 -0.17067,-0.32 l -0.064,-0.0427 -1.23733,-1.13067 c -0.14933,-0.10666 -0.29867,-0.192 -0.46933,-0.192 -0.10667,0 -0.21334,0.0213 -0.32,0.10667 l -1.088,0.832 c -0.0853,0.064 -0.23467,0.17067 -0.23467,0.32 0,0.0853 0.0427,0.192 0.14933,0.29867 l 1.36534,1.472 c 0.10666,0.10666 0.23466,0.192 0.384,0.192 0.0853,0 0.192,-0.0427 0.29866,-0.128 z m -3.98934,0.768 c 0.36267,-0.0427 0.512,-0.17067 0.512,-0.40534 0,-0.064 0,-0.128 -0.0213,-0.192 l -0.36267,-1.6 c -0.064,-0.256 -0.27733,-0.512 -0.576,-0.512 h -0.064 l -1.55733,0.192 c -0.23467,0.0427 -0.40533,0.128 -0.40533,0.384 0,0.0853 0.0213,0.14934 0.0427,0.256 l 0.448,1.64267 c 0.064,0.21333 0.21334,0.32 0.512,0.32 h 0.14934 z m 16.04267,16.128 c 0.29867,0.128 0.53334,0.23466 0.74667,0.23466 0.17067,0 0.34133,-0.0853 0.49067,-0.23466 3.648,-3.75467 4.90666,-8.55467 4.90666,-13.35467 0,-1.19467 -0.064,-2.38933 -0.21333,-3.56267 -0.0427,-0.32 -0.0853,-0.768 -0.832,-0.768 l -3.75467,-0.0427 c -0.40533,0 -0.61866,0.27733 -0.61866,0.64 v 0.064 c 0.0427,0.85333 0.0853,1.77066 0.0853,2.70933 0,4.224 -0.66133,9.10933 -3.328,12.37333 -0.128,0.17067 -0.256,0.36267 -0.256,0.53334 0,0.128 0.064,0.256 0.23467,0.32 z m -3.79733,-8.68267 c 0.34133,0 0.66133,-0.14933 0.768,-0.59733 0.256,-1.04534 0.49067,-3.41334 0.49067,-5.29067 0,-2.32533 -0.21334,-2.47467 -0.78934,-2.47467 l -3.92533,0.0213 c -0.53333,0 -0.66133,0.14933 -0.66133,0.46933 0,0.064 0.0213,0.14933 0.0213,0.23467 0.14933,1.728 0.29867,5.16266 0.29867,6.74133 0,0.512 0.21333,0.704 0.55466,0.72533 l 3.17867,0.17067 z m 31.61599,2.176 c 0.23467,0 0.512,-0.192 0.512,-0.448 v -3.86133 c 0,-0.27734 -0.27733,-0.49067 -0.512,-0.49067 l -14.48533,-0.0213 c -0.23467,0 -0.512,0.21333 -0.512,0.46933 v 3.88267 c 0,0.27733 0.29867,0.49066 0.53333,0.49066 z m 17.57867,-2.47467 c 0,-1.984 -1.6,-3.584 -3.584,-3.584 -1.984,0 -3.584,1.6 -3.584,3.584 0,1.984 1.6,3.584 3.584,3.584 1.984,0 3.584,-1.6 3.584,-3.584 z m 10.58134,9.10934 c 0.192,0.23466 0.384,0.32 0.576,0.32 0.192,0 0.36267,-0.064 0.55467,-0.128 5.696,-1.96267 10.56,-8.27734 11.05066,-13.568 0,-0.0853 0.0213,-0.14934 0.0213,-0.23467 0,-1.42933 -1.32267,-2.28267 -2.28267,-2.368 l -8.512,-0.66133 h -0.0427 c -0.23466,0 -0.42666,0.17066 -0.448,0.40533 l -0.32,3.52 v 0.0427 c 0,0.23466 0.17067,0.42666 0.40534,0.448 l 4.52266,0.384 c 0.32,0.0213 0.46934,0.14933 0.46934,0.40533 0,1.06667 -3.2,6.29333 -7.552,8.448 -0.29867,0.128 -0.42667,0.27733 -0.42667,0.448 0,0.10667 0.064,0.21333 0.14933,0.32 z m 8.61867,-3.49867 c -0.0853,0.10667 -0.128,0.21333 -0.128,0.29867 0,0.17066 0.14933,0.27733 0.32,0.384 1.06666,0.64 3.52,2.15466 4.672,2.90133 0.10666,0.064 0.256,0.128 0.384,0.128 0.14933,0 0.27733,-0.064 0.384,-0.23467 0.55466,-0.91733 1.70666,-2.73066 2.21866,-3.60533 0.0853,-0.14933 0.14934,-0.27733 0.14934,-0.40533 0,-0.17067 -0.10667,-0.32 -0.32,-0.448 -2.624,-1.536 -5.22667,-1.856 -5.39734,-1.856 -0.192,0 -0.384,0.064 -0.53333,0.27733 z m 13.61066,3.392 c 0.14933,0.14933 0.27733,0.21333 0.42667,0.21333 1.024,0 11.072,-5.99466 12.24533,-12.864 0.0213,-0.128 0.0427,-0.256 0.0427,-0.384 0,-1.28 -1.13067,-2.048 -2.00534,-2.112 l -6.656,-0.512 c -0.81066,-1.32266 -0.96,-1.55733 -1.23733,-1.55733 -0.14933,0 -0.27733,0.064 -0.384,0.14933 -1.45067,1.04534 -3.73333,2.51734 -5.952,3.264 -0.192,0.064 -0.32,0.192 -0.32,0.384 0,0.0853 0.0427,0.21334 0.128,0.34134 l 1.83467,2.92266 c 0.14933,0.21334 0.32,0.27734 0.53333,0.27734 0.46933,0 2.13333,-0.512 4.82133,-1.68534 l 2.41067,0.192 c 0.256,0.0213 0.40533,0.128 0.40533,0.29867 0,0.55467 -4.18133,5.568 -8.256,8.128 -0.23466,0.17067 -0.34133,0.32 -0.34133,0.46933 0,0.10667 0.0427,0.192 0.14933,0.29867 z m 33.23734,-6.528 c 0.23467,0 0.512,-0.192 0.512,-0.448 v -3.86133 c 0,-0.27734 -0.27733,-0.49067 -0.512,-0.49067 l -14.48533,-0.0213 c -0.23467,0 -0.512,0.21333 -0.512,0.46933 v 3.88267 c 0,0.27733 0.29867,0.49066 0.53333,0.49066 z m 14.18666,4.928 c 0,0.49067 0.17067,0.832 0.704,0.832 1.25867,0 6.61334,-1.28 9.36534,-3.30667 0.21333,-0.14933 0.32,-0.32 0.32,-0.512 0,-0.23466 -0.0213,-0.32 -1.64267,-3.11466 -0.128,-0.23467 -0.256,-0.32 -0.42667,-0.32 -0.0853,0 -0.192,0.0427 -0.29866,0.064 -2.496,0.61866 -2.73067,0.68266 -2.92267,0.68266 -0.21333,0 -0.27733,-0.10666 -0.27733,-0.46933 v -7.424 c 0,-0.256 -0.27734,-0.40533 -0.55467,-0.40533 h -0.0427 l -4.096,0.192 c -0.27733,0 -0.384,0.27733 -0.384,0.55466 z m -5.71733,-1.06667 c 0.14933,0.0427 0.256,0.064 0.36267,0.064 1.00266,0 3.75466,-5.888 3.75466,-7.104 0,-0.384 -0.23466,-0.576 -0.55466,-0.66133 l -3.60534,-0.96 c -0.064,-0.0213 -0.14933,-0.0213 -0.21333,-0.0213 -0.256,0 -0.46933,0.128 -0.59733,0.512 -0.59734,1.728 -1.728,4.736 -2.53867,6.4 -0.0853,0.192 -0.14933,0.34133 -0.14933,0.46933 0,0.17067 0.10666,0.29867 0.46933,0.40533 z"
         inkscape:path-effect="#path-effect154" />
      <path
         d="m 164.34603,-17.72074 c 0.032,-0.128 0.064,-0.224 0.064,-0.32 0,-0.192 -0.096,-0.32 -0.288,-0.416 -0.256,-0.128 -7.936,-3.904 -9.408,-4.832 l 9.44,-4.736 c 0.128,-0.064 0.256,-0.224 0.256,-0.448 0,-0.256 -0.768,-1.824 -0.832,-1.92 -0.064,-0.16 -0.16,-0.256 -0.32,-0.256 -0.096,0 -0.224,0.032 -0.384,0.096 l -11.2,5.6 c -0.288,0.16 -0.32,0.416 -0.32,0.704 l -0.032,1.472 c 0,0.256 0.128,0.512 0.256,0.64 1.472,1.76 11.232,6.4 11.712,6.4 0.192,0 0.32,-0.128 0.448,-0.448 z m 2.68801,2.432 c -0.032,0.096 -0.064,0.16 -0.064,0.256 0,0.256 0.192,0.48 0.448,0.608 0.544,0.224 1.344,0.544 1.504,0.544 0.256,0 0.48,-0.128 0.576,-0.384 0.224,-0.512 10.816,-25.6 10.816,-25.952 0,-0.192 -0.064,-0.384 -0.32,-0.48 -0.16,-0.064 -1.344,-0.64 -1.6,-0.64 -0.224,0 -0.448,0.128 -0.544,0.352 z m 28.67198,-8.96 c 0,-0.288 -0.032,-0.544 -0.352,-0.704 l -11.2,-5.6 c -0.128,-0.064 -0.256,-0.096 -0.352,-0.096 -0.16,0 -0.256,0.096 -0.352,0.256 -0.192,0.448 -0.576,1.184 -0.736,1.632 -0.064,0.128 -0.064,0.224 -0.064,0.32 0,0.192 0.096,0.352 0.256,0.416 l 9.408,4.736 c -1.44,0.928 -9.12,4.704 -9.376,4.832 -0.224,0.096 -0.32,0.224 -0.32,0.416 0,0.096 0.032,0.224 0.064,0.32 l 0.608,1.536 c 0.128,0.32 0.256,0.448 0.48,0.448 0.8,0 10.496,-4.96 11.712,-6.4 0.128,-0.128 0.224,-0.384 0.224,-0.64 z"
         id="text154"
         style="font-size:32px;line-height:1.25;font-family:'FOT-Yuruka Std';-inkscape-font-specification:'FOT-Yuruka Std';text-align:center;letter-spacing:0px;text-anchor:middle;fill:#71ca71;stroke:#ffffff;stroke-width:7.55906;stroke-linecap:round;stroke-linejoin:round;paint-order:stroke fill markers"
         transform="rotate(21.969047)"
         aria-label="&lt;/&gt;" />
      <path
         style="fill:#ffffff;fill-opacity:1;stroke:none;stroke-width:7.55906;stroke-linecap:round;stroke-linejoin:round;stroke-dasharray:none;stroke-dashoffset:0;stroke-opacity:1;paint-order:stroke fill markers"
         d="m 149.85482,44.077823 3.45736,2.025 c 1.34913,0.79019 5.46974,3.905 5.50495,4.08107 0.13247,0.66234 -0.64057,2.81014 -0.53786,3.47775 0.3049,1.98182 -2.427,1.43114 -3.71139,3.35772 -0.28206,0.42309 -6.20621,0.21154 -6.55497,0.56029"
         id="path154"
         sodipodi:nodetypes="cssssc" />
      <path
         style="fill:#ffffff;fill-opacity:1;stroke:none;stroke-width:7.55906;stroke-linecap:round;stroke-linejoin:round;stroke-dasharray:none;stroke-dashoffset:0;stroke-opacity:1;paint-order:stroke fill markers"
         d="m 165.55002,38.887513 c -0.1,0.0875 -1.50414,-1.6144 -1.6125,-1.5375 -0.27991,0.19865 -0.77037,0.9748 -0.9375,0.675 -1.19155,-2.13745 -3.03055,0.18881 -3.6375,0.7125 -0.10391,0.0897 2.83463,4.2375 2.625,4.2375 m 3.4,-3.775"
         id="path155"
         sodipodi:nodetypes="csssc" />
      <path
         style="fill:#ffffff;fill-opacity:1;stroke:none;stroke-width:7.55906;stroke-linecap:round;stroke-linejoin:round;stroke-dasharray:none;stroke-dashoffset:0;stroke-opacity:1;paint-order:stroke fill markers"
         d="m 180.4402,47.875353 c -0.1,0.0875 -2.25414,-2.8519 -2.3625,-2.775 -0.27991,0.19865 -1.14538,-3.6002 -1.575,-3.6 -2.44714,0.001 -6.44305,4.01381 -7.05,4.5375 -0.10391,0.0897 0.17213,2.925 -0.0375,2.925"
         id="path155-3"
         sodipodi:nodetypes="csssc" />
      <path
         d="m 87.380865,110.55396 c 0,-1.104 -0.896,-2 -2,-2 -1.12,0 -2.016,0.896 -2.016,2 0,1.104 0.896,2 2.016,2 1.104,0 2,-0.896 2,-2 z m 0,5.44 c 0,-1.104 -0.896,-2 -2,-2 -1.12,0 -2.016,0.896 -2.016,2 0,1.104 0.896,2 2.016,2 1.104,0 2,-0.896 2,-2 z m 3.504011,1.04 c -0.032,0.144 -0.064,0.24 -0.064,0.32 0,0.144 0.08,0.224 0.32,0.288 1.024,0.304 2,0.432 2.896,0.432 3.568,0 5.856,-2.144 5.856,-4.192 0,-1.072 -0.624,-2.112 -2.032,-2.8 1.072,-1.04 1.536,-2.08 1.536,-3.04 0,-2.144 -2.352,-3.808 -5.408,-3.808 -1.456,0 -3.088,0.384 -4.688,1.28 -0.144,0.08 -0.224,0.192 -0.224,0.304 0,0.08 0.032,0.176 0.112,0.256 l 1.52,1.792 c 0.112,0.144 0.192,0.288 0.336,0.288 0.064,0 0.16,-0.048 0.288,-0.16 0.336,-0.304 1.12,-0.56 1.872,-0.56 0.928,0 1.68,0.416 1.68,1.264 0,0.56 -0.368,1.296 -1.472,1.296 h -0.08 c -0.272,0 -0.432,0.128 -0.432,0.416 v 0.08 l 0.208,2.368 c 0.032,0.304 0.336,0.384 0.528,0.384 h 0.048 c 1.072,0 1.616,0.512 1.616,1.008 0,0.912 -1.472,1.28 -3.296,0.704 -0.08,-0.016 -0.16,-0.048 -0.256,-0.048 -0.144,0 -0.304,0.08 -0.368,0.32 z"
         id="text161"
         style="font-size:16px;line-height:1.25;font-family:'FOT-Yuruka Std';-inkscape-font-specification:'FOT-Yuruka Std';text-align:center;letter-spacing:0px;text-anchor:middle;fill:#71ca71;stroke:#ffffff;stroke-width:7.55906;stroke-linecap:round;stroke-linejoin:round;paint-order:stroke fill markers"
         aria-label=":3" />
    </g>
    <path
       d="m 488.64924,99.553534 c 6.57743,0.779546 13.2042,1.216866 19.70899,2.765616 0.61859,0.14728 1.2293,0.34843 1.84375,0.52539 -0.99752,-2.22075 -1.4222,-4.593776 -1.24609,-6.843747 0.46445,-5.93384 4.60724,-9.65255 9.20117,-9.29297 4.0197,0.31462 5.59867,3.5195 5.53125,4.38086 -0.10487,1.3399 -0.78881,1.47933 -5.85547,2.23828 -1.26667,0.18974 -2.06994,0.60738 -2.15234,1.66016 -0.03,0.38283 1.30184,6.745907 2.20312,9.994137 0.0829,0.33352 0.24677,0.53755 0.37305,0.79297 0.95497,0.39744 1.91092,0.78324 2.86523,1.1875 4.92481,0.11064 11.43662,-0.34223 15.78711,-1.45313 5.79656,-1.47216 7.89955,-4.96856 8.24414,-9.371087 0.2472,-3.15834 0.84867,-24.39025 -22.88672,-26.24805 -21.82122,-1.70796 -32.61041,11.89005 -33.68164,25.57618 -0.10616,1.356371 -0.0196,2.723931 0.0644,4.087891 z"
       style="font-size:96px;line-height:1.25;font-family:'FOT-Yuruka Std';-inkscape-font-specification:'FOT-Yuruka Std';text-align:center;letter-spacing:0px;text-anchor:middle;fill:#71ca71;stroke:#ffffff;stroke-width:0;stroke-linecap:round;stroke-linejoin:round;paint-order:stroke fill markers"
       id="path147" />
    <path
       d="m 457.8387,90.153143 c 7.1899,2.87886 14.21058,6.313141 21.85937,7.986321 0.42319,0.0926 0.85309,0.13268 1.27735,0.2168 V 50.354313 c 0,-1.152 -0.86393,-2.01563 -1.91993,-2.01563 h -19.29492 c -1.056,0 -1.92187,0.86363 -1.92187,2.01563 z"
       style="font-size:96px;line-height:1.25;font-family:'FOT-Yuruka Std';-inkscape-font-specification:'FOT-Yuruka Std';text-align:center;letter-spacing:0px;text-anchor:middle;fill:#71ca71;stroke:#ffffff;stroke-width:0;stroke-linecap:round;stroke-linejoin:round;paint-order:stroke fill markers"
       id="path145" />
    <path
       d="m 419.95588,83.086733 c 7.81652,0.79029 15.64995,1.59322 23.3711,2.85156 l -2.35742,-36.25195 c -0.0748,-1.14957 -0.99311,-1.95526 -2.04688,-1.88672 l -19.25586,1.25195 c -1.05378,0.0685 -1.85992,0.98715 -1.78515,2.13672 z"
       style="font-size:96px;line-height:1.25;font-family:'FOT-Yuruka Std';-inkscape-font-specification:'FOT-Yuruka Std';text-align:center;letter-spacing:0px;text-anchor:middle;fill:#71ca71;stroke:#ffffff;stroke-width:0;stroke-linecap:round;stroke-linejoin:round;paint-order:stroke fill markers"
       id="path143" />
    <path
       d="m 389.16487,78.961733 c 4.26338,0.49191 8.50759,1.15612 12.74804,1.84375 4.81991,-1.66396 8.60807,-5.8304 9.40821,-11.20899 1.15832,-7.78631 -4.17779,-14.98667 -11.86914,-16.13086 -7.78631,-1.15831 -14.98426,4.17658 -16.14258,11.9629 -0.80585,5.4169 1.64088,10.54287 5.85547,13.5332 z"
       style="font-size:96px;line-height:1.25;font-family:'FOT-Yuruka Std';-inkscape-font-specification:'FOT-Yuruka Std';text-align:center;letter-spacing:0px;text-anchor:middle;fill:#71ca71;stroke:#ffffff;stroke-width:0;stroke-linecap:round;stroke-linejoin:round;paint-order:stroke fill markers"
       id="path142" />
    <path
       d="m 337.06916,86.114073 c 12.50717,-3.78295 21.77902,-6.70974 33.55079,-7.52929 6.00104,-13.95374 9.90716,-30.6034 9.83789,-31.65235 -0.0886,-1.34108 -1.01424,-2.24253 -3.26172,-2.76758 l -13.09571,-3.08007 c -0.79844,-0.18777 -1.46227,-0.28843 -2.13281,-0.24415 -1.24529,0.0822 -2.16569,0.72067 -2.6582,2.00391 -0.563,1.67274 -4.89993,16.10154 -7.74024,24.08203 -0.24942,0.59372 -0.42942,0.79938 -0.71679,0.81836 -0.19158,0.0127 -0.49164,-0.16065 -0.71485,-0.62695 l -12.29101,-22.95117 c -0.5067,-0.94618 -1.5436,-1.53435 -2.98047,-1.43946 -2.01162,0.13284 -14.21981,6.13432 -16.44922,7.33985 -1.02208,0.54854 -1.55201,1.25684 -1.48242,2.31054 0.0443,0.67054 0.28591,1.42529 0.82812,2.35157 z"
       style="font-size:96px;line-height:1.25;font-family:'FOT-Yuruka Std';-inkscape-font-specification:'FOT-Yuruka Std';text-align:center;letter-spacing:0px;text-anchor:middle;fill:#71ca71;stroke:#ffffff;stroke-width:0;stroke-linecap:round;stroke-linejoin:round;paint-order:stroke fill markers"
       id="path139" />
    <path
       d="m 265.81135,102.12775 c 1.34418,-0.19025 2.77112,-0.38762 7.89062,-1.00196 7.81555,-0.93786 15.55305,-1.970766 23.28711,-3.582026 5.06438,-1.05508 7.53611,-2.657061 12.53907,-4.179691 4.13362,-1.25805 8.35356,-2.25473 12.57226,-3.24609 l -3.98437,-6.43164 c -0.77185,-1.24562 -1.425,-1.81445 -2.1875,-1.90625 -4.19372,-0.50486 -22.05708,9.72124 -26.33203,12.30078 l 2.77929,-40.75977 c 0.0721,-1.05789 -0.62735,-2.01051 -1.67578,-2.13672 l -0.1914,-0.0215 -19.17774,-1.3418 c -0.96243,-0.0673 -1.92432,0.73439 -2.03906,1.6875 l -0.0234,0.19141 z"
       style="font-size:96px;line-height:1.25;font-family:'FOT-Yuruka Std';-inkscape-font-specification:'FOT-Yuruka Std';text-align:center;letter-spacing:0px;text-anchor:middle;fill:#71ca71;stroke:#ffffff;stroke-width:0;stroke-linecap:round;stroke-linejoin:round;paint-order:stroke fill markers"
       id="path137" />
    <path
       d="m 224.32111,102.95978 c 1.3337,-0.0222 2.67259,-0.11304 4.00391,-0.043 20.01407,1.05338 -6.75107,0.10648 9.55273,1.19336 3.22166,0.21476 6.64591,0.26571 10.05274,0.24218 l -3.97266,-27.683587 c 1.49583,-0.51889 2.81756,-0.82986 4.15625,-0.94922 1.62555,-0.14493 3.27705,-0.004 4.84961,0.33789 0.39101,0.0615 0.7815,0.1232 1.06836,0.0977 1.14745,-0.1023 2.04344,-0.85644 2.21094,-2.2207 l 1.57227,-13.73047 c 0.053,-0.48663 0.11418,-0.87728 0.0801,-1.25977 -0.10231,-1.14744 -0.74448,-1.86063 -2.21289,-2.11523 -3.02391,-0.40505 -6.21373,-0.50666 -9.46484,-0.2168 -4.78103,0.42628 -9.68454,1.63477 -14.70313,3.7207 l -11.04101,1.5625 c -1.05183,0.0938 -1.82691,1.12599 -1.72461,2.27344 z"
       style="font-size:96px;line-height:1.25;font-family:'FOT-Yuruka Std';-inkscape-font-specification:'FOT-Yuruka Std';text-align:center;letter-spacing:0px;text-anchor:middle;fill:#71ca71;stroke:#ffffff;stroke-width:0;stroke-linecap:round;stroke-linejoin:round;paint-order:stroke fill markers"
       id="path135" />
    <path
       d="m 146.02424,82.448063 c 0.56377,0.0676 1.13013,0.0912 1.69336,0.16797 5.2853,0.72072 12.03778,1.82251 17.3164,3.58203 0.9174,0.30579 1.78942,0.72438 2.66016,1.14648 0.0386,-0.57362 0.10371,-1.14946 0.23437,-1.72656 1.08118,-4.77513 5.65211,-9.74378 11.55079,-8.4082 2.71526,0.61479 4.94692,2.498 5.64648,4.625 -0.82325,2.76649 -1.48982,5.27265 -2.04102,7.70703 -0.35253,1.55701 -0.48895,2.89523 -0.71484,4.32617 0.22151,-0.20134 0.41651,-0.51594 6.54688,1.28711 1.28087,0.37673 2.32468,1.341961 3.58203,1.791011 3.50153,1.25054 7.1021,2.25518 10.74804,2.98438 0.20625,0.0412 0.8723,0.0751 1.17188,0.115226 0.0952,-1.453356 0.29598,-3.001286 0.6875,-4.730457 1.39918,-6.17957 4.55298,-14.02843 7.79297,-22.25196 l 0.10742,-0.46875 c 0.2544,-1.12356 -0.12561,-2.4881 -2.51758,-3.22656 l -15.88086,-5.07227 -0.46679,-0.10742 c -1.12356,-0.25439 -2.03006,-0.16297 -2.74024,0.36524 -3.29117,-2.4185 -7.64663,-4.4869 -12.32812,-5.54688 -18.53873,-4.19755 -30.16502,10.19802 -32.70899,21.43359 -0.15177,0.67031 -0.24334,1.33866 -0.33984,2.00782 z"
       style="font-size:96px;line-height:1.25;font-family:'FOT-Yuruka Std';-inkscape-font-specification:'FOT-Yuruka Std';text-align:center;letter-spacing:0px;text-anchor:middle;fill:#71ca71;stroke:#ffffff;stroke-width:0;stroke-linecap:round;stroke-linejoin:round;paint-order:stroke fill markers"
       id="path133" />
    <path
       d="m 64.285947,36.709783 -18.91211,1.05664 c -1.82399,0.192 -2.40039,1.6315 -2.40039,2.6875 l 2.78516,55.2539 c 7.60496,-2.51049 16.63864,-4.62577 23.11523,-5.92187 l -1.90039,-17.93946 v -0.67187 c 0,-0.576 0.0951,-0.96094 0.28711,-0.96094 0.288,0 0.57694,0.28953 0.96094,0.76953 1.25217,1.7135 4.91135,8.89091 8.6582,16.17188 0.32201,-0.11542 0.66152,-0.25371 0.97852,-0.35938 6.890324,-2.29677 14.384764,-4.18978 21.496095,-5.375 2.195848,-0.36597 4.628318,-0.37467 7.072268,-0.29297 2.53996,-5.11515 4.71051,-9.43083 5.57031,-10.625 0.384,-0.47999 0.67324,-0.76757 0.86524,-0.76757 0.288,0 0.38281,0.38268 0.38281,1.05468 v 0.48047 l -1.0957,10.06836 c 0.6983,0.0246 1.46962,0.082 2.13281,0.082 7.08396,0 14.13408,-0.0756 21.15234,0.21094 l 1.81055,-41.27344 v -0.1914 c 0,-1.056 -0.57639,-2.4001 -2.40039,-2.4961 l -19.10352,-0.96093 h -0.1914 c -1.344,0 -2.87968,0.76804 -3.26368,1.24804 -4.70399,5.568 -13.729568,19.68081 -21.601559,33.2168 -0.192,0.288 -0.28651,0.48047 -0.47851,0.48047 -0.192,0 -0.28847,-0.0968 -0.48047,-0.38477 -7.87199,-13.53598 -16.895624,-27.7445 -21.599614,-33.3125 -0.384,-0.48 -2.30444,-1.24804 -3.64844,-1.24804 z"
       style="font-size:96px;line-height:1.25;font-family:'FOT-Yuruka Std';-inkscape-font-specification:'FOT-Yuruka Std';text-align:center;letter-spacing:0px;text-anchor:middle;fill:#71ca71;stroke:#ffffff;stroke-width:0;stroke-linecap:round;stroke-linejoin:round;paint-order:stroke fill markers"
       id="path129" />
    <path
       d="m 488.64924,99.553534 c 0.81716,13.264786 10.57161,26.307666 30.27149,27.849596 l 1.14844,0.0898 c 2.7755,0.21724 4.12424,-1.0247 5.00976,-2.49609 1.69031,-3.14168 4.68877,-9.45503 4.76368,-10.41211 0.12735,-1.62702 -1.43159,-2.61583 -2.77149,-2.72071 l -0.19141,-0.0156 c -0.67674,-0.053 -1.44333,-0.016 -2.11328,-0.0684 -8.00217,-0.62634 -12.54932,-4.44932 -14.56445,-8.93554 -0.61445,-0.17696 -1.22516,-0.37811 -1.84375,-0.52539 -6.50479,-1.54875 -13.13156,-1.98607 -19.70899,-2.765616 z"
       style="fill:#27b574;stroke:#ffffff;stroke-width:0;stroke-linecap:round;stroke-linejoin:round;paint-order:stroke fill markers"
       id="path148" />
    <path
       d="m 457.8387,90.153143 v 38.634747 c 0,1.056 0.86587,1.91992 1.92187,1.91992 h 19.29492 c 1.056,0 1.91993,-0.86392 1.91993,-1.91992 V 98.356264 c -0.42426,-0.0841 -0.85416,-0.12422 -1.27735,-0.2168 -7.64879,-1.67318 -14.66947,-5.107461 -21.85937,-7.986321 z"
       style="fill:#27b574;stroke:#ffffff;stroke-width:0;stroke-linecap:round;stroke-linejoin:round;paint-order:stroke fill markers"
       id="path146" />
    <path
       d="m 419.95588,83.086733 3.01563,46.369127 c 0.0685,1.05378 0.98725,1.85956 2.04101,1.79102 l 19.25586,-1.25196 c 1.05377,-0.0685 1.85956,-0.98724 1.79102,-2.04101 l -2.73242,-42.015617 c -7.72115,-1.25834 -15.55458,-2.06127 -23.3711,-2.85156 z"
       style="fill:#27b574;stroke:#ffffff;stroke-width:0;stroke-linecap:round;stroke-linejoin:round;paint-order:stroke fill markers"
       id="path144" />
    <path
       d="m 386.35823,82.770323 19.13281,1.875 0.18945,0.0293 c 0.94955,0.14126 1.62766,1.11673 1.53516,2.07227 l -4.51953,46.691387 -0.0274,0.18946 c -0.14126,0.94955 -1.12771,1.72496 -2.08789,1.63086 l -19.13086,-1.875 -0.1914,-0.0293 c -1.0445,-0.15539 -1.71729,-1.12621 -1.61524,-2.18164 l 4.50391,-46.595697 c 0.16951,-1.13946 1.05735,-1.88114 2.21094,-1.80664 z"
       style="fill:#27b574;stroke:#ffffff;stroke-width:0;stroke-linecap:round;stroke-linejoin:round;paint-order:stroke fill markers"
       id="path141" />
    <path
       d="m 337.06916,86.114073 5.375,8.73828 c 1.10426,1.795191 2.92402,2.021061 4.83985,1.894541 l 9.67383,-0.638681 c 1.72423,-0.11387 3.30949,-0.89306 4.21679,-1.72265 3.50689,-3.45013 6.67803,-9.36623 9.44532,-15.80078 -11.77177,0.81955 -21.04362,3.74634 -33.55079,7.52929 z"
       style="fill:#27b574;stroke:#ffffff;stroke-width:0;stroke-linecap:round;stroke-linejoin:round;paint-order:stroke fill markers"
       id="path140" />
    <path
       d="m 265.77033,102.74103 -1.87304,27.31053 c -0.0424,1.15522 0.81876,2.032 1.86718,2.15821 l 19.18946,1.24609 c 1.14374,0.13769 2.02051,-0.72344 2.1582,-1.86719 l 1.10352,-16.40234 0.60742,-0.2168 c 2.02097,-0.72363 6.69112,-2.57895 11.88476,-4.75781 l -8.07421,7.63477 c -0.54483,0.5151 -0.79224,0.9668 -0.84961,1.44336 -0.10326,0.85779 0.37637,1.69053 0.90234,2.14062 4.49373,3.63516 15.52443,12.40841 20.35352,16.4707 0.52597,0.45009 1.07423,0.70826 1.55078,0.76563 0.95312,0.11474 1.78512,-0.36367 2.67383,-1.32031 l 8.95507,-10.13868 c 0.5996,-0.67875 0.82764,-1.2543 0.89649,-1.82617 0.42454,-3.52653 -12.26225,-15.40073 -18.68164,-18.30077 6.09735,-2.45684 11.88576,-4.75639 14.40625,-5.61328 1.21258,-0.43418 2.40234,-4.520466 2.40234,-5.480467 0,-0.576 -0.19217,-1.15252 -0.57617,-1.72852 l -2.56641,-4.14062 c -4.2187,0.99136 -8.43864,1.98804 -12.57226,3.24609 -5.00296,1.52263 -7.47469,3.124611 -12.53907,4.179691 -7.73406,1.61126 -15.47156,2.644166 -23.28711,3.582026 -5.1195,0.61434 -6.54644,0.81171 -7.89062,1.00196 l -0.0176,0.24804 c 1.65637,-0.0963 1.7263,0.0213 -0.0234,0.36524 z"
       style="fill:#27b574;stroke:#ffffff;stroke-width:0;stroke-linecap:round;stroke-linejoin:round;paint-order:stroke fill markers"
       id="path138" />
    <path
       d="m 224.32111,102.95978 1.53711,10.69335 c 0.1023,1.14745 1.12794,1.82692 2.27539,1.72461 l 18.9336,-2.74805 c 1.05183,-0.0938 1.83597,-1.03021 1.74219,-2.08203 l -0.0176,-0.19141 -0.86133,-6.0039 c -3.40683,0.0235 -6.83108,-0.0274 -10.05274,-0.24218 -16.3038,-1.08688 10.46134,-0.13998 -9.55273,-1.19336 -1.33132,-0.0701 -2.67021,0.0208 -4.00391,0.043 z"
       style="fill:#27b574;stroke:#ffffff;stroke-width:0;stroke-linecap:round;stroke-linejoin:round;paint-order:stroke fill markers"
       id="path136" />
    <path
       d="m 146.02424,82.448063 c -2.07379,14.379311 8.39112,28.261597 23.33203,31.644517 4.77512,1.08119 10.0862,1.1014 15.52734,-0.32422 3.68512,5.4606 9.89964,8.44231 10.83594,8.6543 1.21719,0.2756 2.34381,-0.35495 3.54688,-1.75586 l 8.37109,-10.01367 c 0.27205,-0.33212 0.4283,-0.59204 0.4707,-0.7793 0.212,-0.9363 -0.68923,-1.73196 -1.51953,-2.4121 -1.82447,-1.57135 -2.38402,-4.14765 -2.16992,-7.41602 -0.29958,-0.0401 -0.96563,-0.074 -1.17188,-0.115226 -3.64594,-0.7292 -7.24651,-1.73384 -10.74804,-2.98438 -1.25735,-0.44905 -2.30116,-1.414281 -3.58203,-1.791011 -6.13037,-1.80305 -6.32537,-1.48845 -6.54688,-1.28711 -0.1952,1.23656 -0.49384,2.580311 -0.61914,3.738281 -2.36549,0.44871 -4.51009,0.35597 -6.28906,-0.0469 -5.4161,-1.226321 -8.07952,-5.576791 -7.76758,-10.214851 -0.87074,-0.4221 -1.74276,-0.84069 -2.66016,-1.14648 -5.27862,-1.75952 -12.0311,-2.86131 -17.3164,-3.58203 -0.56323,-0.0768 -1.12959,-0.10034 -1.69336,-0.16797 z"
       style="fill:#27b574;stroke:#ffffff;stroke-width:0;stroke-linecap:round;stroke-linejoin:round;paint-order:stroke fill markers"
       id="path134" />
    <path
       d="m 135.43439,81.631653 c -7.01826,-0.28649 -14.06838,-0.21094 -21.15234,-0.21094 -0.66319,0 -1.43451,-0.0574 -2.13281,-0.082 L 108.73322,112.743 v 0.0957 c 0,1.056 0.96027,3.16768 3.07227,3.26368 l 19.48828,1.43945 h 0.0957 c 1.44,0 2.4958,-1.43921 2.5918,-2.7832 z"
       style="fill:#27b574;stroke:#ffffff;stroke-width:0;stroke-linecap:round;stroke-linejoin:round;paint-order:stroke fill markers"
       id="path132" />
    <path
       d="m 106.42658,81.127743 c -2.44395,-0.0817 -4.87642,-0.073 -7.072268,0.29297 -7.111331,1.18522 -14.605771,3.07823 -21.496095,5.375 -0.317,0.10567 -0.65651,0.24396 -0.97852,0.35938 1.71106,3.32497 3.467864,6.78585 4.972664,9.554691 0.576,1.152 1.53763,2.59179 3.26563,2.59179 l 9.88671,-0.38281 c 2.112,-0.096 3.16874,-1.44098 3.552741,-2.20898 2.363418,-4.437451 5.304378,-10.416941 7.869138,-15.582041 z"
       style="fill:#27b574;stroke:#ffffff;stroke-width:0;stroke-linecap:round;stroke-linejoin:round;paint-order:stroke fill markers"
       id="path131" />
    <path
       d="m 68.873837,89.785953 c -6.47659,1.2961 -15.51027,3.41138 -23.11523,5.92187 l 0.95898,19.050777 c 0,1.34399 1.0558,2.7832 2.5918,2.7832 h 0.0957 l 18.43164,-1.53516 c 2.112,-0.192 3.45704,-2.20767 3.45704,-3.26367 v -0.0957 z"
       style="fill:#27b574;stroke:#ffffff;stroke-width:0;stroke-linecap:round;stroke-linejoin:round;paint-order:stroke fill markers"
       id="path130" />
    <path
       style="fill:none;fill-opacity:1;stroke:#fb5f5f;stroke-width:7.55906;stroke-linecap:round;stroke-linejoin:round;stroke-dasharray:7.55906, 22.6772;stroke-dashoffset:0;stroke-opacity:1;paint-order:stroke fill markers"
       d="m 24.683507,49.444493 c 22.37044,42.81896 18.81719,97.713027 72.955794,96.286607 37.633499,-12.17897 65.435089,-44.07729 92.913809,-70.852097 91.23762,-88.90044 236.41549,-75.30637 295.28782,57.699927 2.03489,8.13945 0.74985,4.65684 3.39407,10.6066"
       id="path156"
       sodipodi:nodetypes="csscc" />
    <path
       style="fill:none;fill-opacity:1;stroke:#fb5f5f;stroke-width:7.55906;stroke-linecap:round;stroke-linejoin:round;stroke-dasharray:none;stroke-dashoffset:0;stroke-opacity:1;marker-end:url(#ArrowTriangleStylized);paint-order:stroke fill markers"
       d="m 502.95289,38.816573 c 69.2063,-0.0754 88.31509,42.4068 51.33593,103.944697 -18.75802,31.21569 -81.97761,42.90418 -110.73291,7.63671"
       id="path157"
       sodipodi:nodetypes="csc" />
  </g>
  <path
     style="fill:#ffffff;fill-opacity:1;stroke:none;stroke-width:7.55906;stroke-linecap:round;stroke-linejoin:round;stroke-dasharray:none;stroke-dashoffset:0;stroke-opacity:1;paint-order:stroke fill markers"
     d="m 307.83751,50.900013 c -0.55624,5.85625 -2.98768,-0.87828 -4.63715,1.06508 -1.09472,1.28976 -2.32931,8.86035 -2.23562,9.65642 0.21812,1.85403 1.81181,12.00161 2.07582,13.84966 0.50751,3.55251 14.1923,-6.36025 14.1923,-2.74993 m -3.34631,-20.63042 c -0.55624,5.85625 -2.98768,-0.87828 -4.63715,1.06508 -1.09472,1.28976 -2.32931,8.86035 -2.23562,9.65642 0.21812,1.85403 1.81181,12.00161 2.07582,13.84966 0.50751,3.55251 14.1923,-6.36025 14.1923,-2.74993"
     id="path158"
     sodipodi:nodetypes="csssc" />
  <path
     style="fill:#ffffff;fill-opacity:1;stroke:none;stroke-width:7.55906;stroke-linecap:round;stroke-linejoin:round;stroke-dasharray:none;stroke-dashoffset:0;stroke-opacity:1;paint-order:stroke fill markers"
     d="m 356.10279,103.07501 c -0.55624,5.85624 -15.51267,-2.60329 -17.16214,-0.65993 -1.09472,1.28976 -11.2543,7.13534 -11.16061,7.93141 0.21812,1.85403 0.1618,34.01411 5.71331,30.16216 2.94836,-2.04574 20.9423,-7.78525 20.9423,-4.17493 m 17.61619,-9.15542 c -0.55624,5.85625 2.78732,-29.115766 1.13785,-27.17241 -1.09472,1.28976 -22.27931,6.76035 -22.18562,7.55642 0.21812,1.85402 -1.11319,25.5766 -0.84918,27.42465 0.50751,3.55251 15.6548,-12.36025 16.3673,-10.51243"
     id="path158-8"
     sodipodi:nodetypes="csssccsssc" />
  <path
     style="fill:#ffffff;fill-opacity:1;stroke:none;stroke-width:7.55906;stroke-linecap:round;stroke-linejoin:round;stroke-dasharray:none;stroke-dashoffset:0;stroke-opacity:1;paint-order:stroke fill markers"
     d="m 360.25002,127.0875 c -1.17229,0.93476 -5.64796,2.92781 -6.4875,4.2375 -0.27966,0.43626 -0.89592,3.81602 -1.0125,4.2375 -0.22318,0.80687 1.6854,0.98425 1.5,1.8 -0.0952,0.41885 0.54824,2.00122 0.45,2.41875 -0.28887,1.2277 0.2364,-2.27328 0.0562,-1.3125 -0.0882,0.47023 1.01919,2.73885 1.18125,3.225"
     id="path159"
     sodipodi:nodetypes="csssssc" />
  <path
     style="fill:#ffffff;fill-opacity:1;stroke:none;stroke-width:7.55906;stroke-linecap:round;stroke-linejoin:round;stroke-dasharray:none;stroke-dashoffset:0;stroke-opacity:1;paint-order:stroke fill markers"
     d="m 358.70627,129.25 c -0.0688,0.0875 -0.1485,0.16738 -0.20625,0.2625 -0.35125,0.57854 -0.15786,1.43512 0.225,1.95 0.15409,0.20722 0.31235,0.45529 0.58125,0.525 0.26803,0.0695 0.6245,0.013 0.825,-0.1875 0.0478,-0.0478 0.0764,-0.11159 0.1125,-0.16875 0.23765,-0.37628 1.21816,-0.71328 0.91875,-1.10625 -0.24672,-0.32382 -0.61916,-1.38487 -1.05,-1.65 -0.15129,-0.0931 -0.83062,0.66282 -0.99375,0.58125 -0.0478,-0.0239 -0.1,-0.0375 -0.15,-0.0562 l -0.2625,-0.15 z"
     id="path160"
     sodipodi:nodetypes="sssssssssccs" />
  <path
     sodipodi:type="star"
     style="fill:#fb5f5f;fill-opacity:1;stroke:none;stroke-width:7.55906;stroke-linecap:round;stroke-linejoin:round;stroke-dasharray:none;stroke-dashoffset:0;stroke-opacity:1;paint-order:stroke fill markers"
     id="path161"
     inkscape:flatsided="false"
     sodipodi:sides="4"
     sodipodi:cx="544.54291"
     sodipodi:cy="467.46829"
     sodipodi:r1="14.610952"
     sodipodi:r2="7.3054757"
     sodipodi:arg1="2.6909308"
     sodipodi:arg2="3.476329"
     inkscape:rounded="0"
     inkscape:randomized="0"
     d="m 531.39073,473.83226 6.25218,-8.76396 0.53603,-10.75219 8.76396,6.25218 10.75219,0.53604 -6.25218,8.76396 -0.53604,10.75218 -8.76396,-6.25218 z"
     transform="matrix(1.0829101,0,0,1.0552851,-241.77587,-379.60096)" />
  <path
     sodipodi:type="star"
     style="fill:#fb5f5f;fill-opacity:1;stroke:#fffdfd;stroke-width:12.057;stroke-linecap:round;stroke-linejoin:round;stroke-dasharray:none;stroke-dashoffset:0;stroke-opacity:1;paint-order:stroke fill markers"
     id="path161-6"
     inkscape:flatsided="false"
     sodipodi:sides="4"
     sodipodi:cx="544.54291"
     sodipodi:cy="467.46829"
     sodipodi:r1="14.610952"
     sodipodi:r2="7.3054757"
     sodipodi:arg1="2.6909308"
     sodipodi:arg2="3.476329"
     inkscape:rounded="0"
     inkscape:randomized="0"
     d="m 531.39073,473.83226 6.25218,-8.76396 0.53603,-10.75219 8.76396,6.25218 10.75219,0.53604 -6.25218,8.76396 -0.53604,10.75218 -8.76396,-6.25218 z"
     transform="matrix(0.63509565,0,0,0.61889439,-272.18462,-261.94971)" />
</svg>
